<?xml version="1.0" standalone="no"?>
<!DOCTYPE svg PUBLIC "-//W3C//DTD SVG 20010904//EN"
 "http://www.w3.org/TR/2001/REC-SVG-20010904/DTD/svg10.dtd">
<svg version="1.0" xmlns="http://www.w3.org/2000/svg"
 width="683.000000pt" height="365.000000pt" viewBox="0 0 683.000000 365.000000"
 preserveAspectRatio="xMidYMid meet">

<g transform="translate(0.000000,365.000000) scale(0.100000,-0.100000)"
fill="#000000" stroke="none">
<path d="M5244 2688 c4 -13 9 -62 13 -110 l6 -88 38 0 39 0 0 63 c0 78 -23
126 -69 145 -33 13 -33 13 -27 -10z"/>
<path d="M275 2675 c-14 -13 -25 -29 -25 -35 0 -5 -18 -10 -41 -10 -48 0 -48
-15 -1 -45 26 -16 31 -27 32 -57 0 -38 1 -38 40 -38 l40 0 0 68 c0 37 4 84 9
105 8 33 7 37 -11 37 -10 0 -30 -11 -43 -25z"/>
<path d="M5455 2443 l-50 -27 -392 3 -393 3 0 -711 0 -711 -34 0 c-18 0 -38 6
-43 12 -21 27 -53 131 -53 173 0 38 3 45 20 45 16 0 20 7 20 35 l0 35 -1350 0
-1350 0 10 -26 c14 -36 6 -44 -45 -44 l-44 0 -32 67 c-39 81 -107 151 -186
189 -52 25 -69 28 -158 29 -93 0 -105 -2 -167 -33 -81 -40 -156 -118 -189
-197 l-23 -55 -49 0 -50 0 6 35 6 35 -235 0 -234 0 0 40 0 40 -109 0 -108 0
-7 -46 c-9 -66 -8 -132 3 -138 5 -3 12 -26 16 -52 11 -77 20 -80 196 -87 162
-5 171 -7 436 -86 161 -48 276 -92 266 -102 -4 -4 -28 -9 -53 -11 -44 -3 -42
-4 68 -40 108 -36 120 -38 243 -38 117 0 145 4 269 36 77 19 170 39 207 43 65
8 63 8 -47 10 -63 0 -110 5 -105 10 14 12 116 38 225 57 273 48 1840 20 2295
-40 l100 -14 -130 -2 c-71 -1 -173 -5 -225 -9 l-95 -6 195 -13 c107 -7 231
-18 275 -23 105 -14 465 -16 735 -5 195 8 228 6 356 -13 189 -28 232 -27 331
8 101 36 140 59 188 112 58 65 79 121 79 212 l0 77 112 0 113 0 16 55 c9 29
15 76 13 102 l-3 48 -159 3 c-149 2 -160 4 -190 26 -57 44 -151 69 -238 63
-171 -11 -303 -123 -344 -290 -13 -53 -21 -67 -35 -67 -17 0 -19 -9 -19 -80
l0 -80 -55 0 -55 0 0 675 0 675 100 0 c88 0 107 3 150 25 43 22 61 25 142 24
51 -1 83 -4 71 -6 -22 -4 -23 -8 -23 -134 0 -107 3 -129 15 -129 8 0 22 15 32
33 14 25 18 56 18 148 0 153 -5 159 -119 159 -68 -1 -89 -5 -131 -27z m85 -8
c0 -18 -5 -25 -20 -25 -12 0 -38 -9 -60 -20 -44 -23 -90 -26 -90 -7 0 11 131
75 158 76 6 1 12 -10 12 -24z m134 9 c25 -24 10 -34 -54 -34 -59 0 -76 9 -66
35 8 21 99 20 120 -1z m-314 -59 c0 -12 -16 -15 -80 -15 -64 0 -80 3 -80 15 0
12 16 15 80 15 64 0 80 -3 80 -15z m-500 -199 c0 -93 -4 -157 -10 -161 -5 -3
-10 -17 -10 -31 l0 -25 -92 3 -93 3 -3 170 c-1 93 0 175 2 182 4 9 33 13 106
13 l100 0 0 -154z m300 -26 c-2 -196 -7 -233 -35 -239 -16 -3 -16 0 4 28 27
38 11 42 -18 5 -22 -28 -28 -64 -10 -64 6 0 19 5 30 10 17 9 19 7 18 -17 0
-15 -3 -22 -6 -15 -2 6 -18 12 -34 12 -20 0 -29 5 -29 16 0 10 -6 14 -15 10
-10 -4 -17 3 -21 22 -3 15 -10 36 -14 47 -5 11 -19 58 -30 105 -12 47 -28 92
-36 101 -9 10 -14 39 -14 87 l0 72 105 0 106 0 -1 -180z m-300 -640 c0 -6 -40
-10 -100 -10 -60 0 -100 4 -100 10 0 6 40 10 100 10 60 0 100 -4 100 -10z
m300 0 c0 -6 -42 -10 -105 -10 -63 0 -105 4 -105 10 0 6 42 10 105 10 63 0
105 -4 105 -10z m-300 -140 c0 -6 -40 -10 -99 -10 -56 0 -103 4 -106 10 -4 6
32 10 99 10 64 0 106 -4 106 -10z m300 0 c0 -6 -42 -10 -105 -10 -63 0 -105 4
-105 10 0 6 42 10 105 10 63 0 105 -4 105 -10z m-3722 -63 c73 -27 122 -100
122 -182 0 -77 -41 -140 -113 -170 -99 -41 -202 0 -248 100 -69 149 82 308
239 252z m4367 -6 c76 -35 115 -95 115 -177 0 -157 -189 -240 -311 -137 -160
135 6 402 196 314z m-945 -71 c0 -6 -40 -10 -100 -10 -60 0 -100 4 -100 10 0
6 40 10 100 10 60 0 100 -4 100 -10z m300 0 c0 -6 -42 -10 -105 -10 -63 0
-105 4 -105 10 0 6 42 10 105 10 63 0 105 -4 105 -10z"/>
<path d="M1346 1274 c-9 -22 17 -49 39 -40 10 3 15 15 13 28 -4 29 -42 37 -52
12z"/>
<path d="M1271 1250 c-19 -11 -9 -45 14 -45 13 0 21 8 23 21 3 23 -17 37 -37
24z"/>
<path d="M1440 1245 c-17 -20 -5 -45 20 -45 11 0 23 7 26 15 6 15 -11 45 -26
45 -4 0 -13 -7 -20 -15z"/>
<path d="M1410 1183 c0 -5 -17 -8 -37 -8 -34 0 -38 -3 -41 -28 -6 -51 38 -76
71 -39 13 14 22 82 10 82 -1 0 -3 -3 -3 -7z m-11 -31 c12 -22 -3 -42 -31 -42
-21 0 -33 22 -24 45 8 21 43 19 55 -3z"/>
<path d="M1230 1155 c-15 -18 -6 -45 13 -45 8 0 20 7 27 15 10 12 10 18 0 30
-16 19 -24 19 -40 0z"/>
<path d="M1482 1161 c-20 -12 -10 -46 13 -46 14 0 20 7 20 24 0 27 -13 35 -33
22z"/>
<path d="M1264 1066 c-9 -24 4 -48 23 -44 12 2 18 12 18 28 0 29 -32 41 -41
16z"/>
<path d="M1436 1065 c-20 -15 -20 -15 0 -30 24 -18 29 -18 44 0 10 12 10 18 0
30 -15 18 -20 18 -44 0z"/>
<path d="M1347 1027 c-8 -21 8 -39 29 -35 27 5 25 42 -2 46 -12 2 -24 -3 -27
-11z"/>
<path d="M5712 1277 c-9 -10 -8 -18 2 -32 18 -25 48 -13 44 17 -4 27 -30 35
-46 15z"/>
<path d="M5631 1250 c-20 -12 -8 -45 17 -48 18 -3 22 1 22 21 0 27 -19 40 -39
27z"/>
<path d="M5800 1245 c-17 -20 -5 -45 20 -45 11 0 23 7 26 15 6 15 -11 45 -26
45 -4 0 -13 -7 -20 -15z"/>
<path d="M5685 1182 c12 -8 13 -74 2 -83 -4 -3 14 -5 40 -5 46 1 48 2 50 32 3
38 -9 49 -62 57 -22 4 -35 3 -30 -1z m73 -29 c13 -26 4 -43 -24 -43 -29 0 -41
24 -24 45 17 20 37 19 48 -2z"/>
<path d="M5590 1155 c-16 -19 -6 -45 19 -45 23 0 35 28 20 46 -15 18 -24 18
-39 -1z"/>
<path d="M5843 1163 c-18 -7 -16 -42 2 -49 24 -10 47 14 34 37 -10 19 -15 21
-36 12z"/>
<path d="M5624 1066 c-9 -24 4 -48 23 -44 12 2 18 12 18 28 0 29 -32 41 -41
16z"/>
<path d="M5800 1064 c-11 -12 -10 -18 3 -32 16 -15 18 -15 34 0 13 14 14 20 3
32 -7 9 -16 16 -20 16 -4 0 -13 -7 -20 -16z"/>
<path d="M5717 1034 c-4 -4 -7 -16 -7 -26 0 -14 6 -19 23 -16 14 2 22 10 22
23 0 20 -25 32 -38 19z"/>
<path d="M5140 2451 c0 -5 9 -7 20 -4 11 3 20 7 20 9 0 2 -9 4 -20 4 -11 0
-20 -4 -20 -9z"/>
<path d="M318 2433 c6 -2 18 -2 25 0 6 3 1 5 -13 5 -14 0 -19 -2 -12 -5z"/>
<path d="M420 2400 l0 -30 70 0 70 0 0 -65 0 -65 30 0 c30 0 30 1 30 53 0 37
-3 48 -10 37 -9 -13 -10 -13 -10 0 0 16 -72 80 -89 80 -6 0 -11 5 -11 10 0 6
-18 10 -40 10 -38 0 -40 -2 -40 -30z"/>
<path d="M870 2400 l0 -30 70 0 70 0 0 -65 0 -65 30 0 c28 0 30 3 30 35 0 46
-23 80 -71 107 -22 12 -39 28 -39 35 0 9 -14 13 -45 13 -43 0 -45 -1 -45 -30z"/>
<path d="M1320 2400 l0 -30 70 0 70 0 0 -65 0 -65 30 0 30 0 0 63 c0 42 -3 57
-10 47 -8 -12 -12 -11 -30 8 -11 12 -24 22 -29 22 -4 0 -13 11 -19 25 -10 22
-18 25 -62 25 -49 0 -50 -1 -50 -30z"/>
<path d="M1770 2400 l0 -30 70 0 70 0 0 -65 0 -65 30 0 c28 0 30 2 30 40 0 33
-6 47 -36 75 -20 19 -41 35 -47 35 -5 0 -7 3 -4 7 13 13 -29 32 -70 33 -41 0
-43 -1 -43 -30z"/>
<path d="M2220 2400 l0 -30 70 0 70 0 0 -65 0 -65 30 0 c29 0 30 1 30 52 0 28
-3 49 -6 45 -4 -3 -23 9 -43 28 -20 19 -42 35 -48 35 -7 0 -13 7 -13 15 0 11
-12 15 -45 15 -43 0 -45 -1 -45 -30z"/>
<path d="M2670 2400 l0 -30 70 0 70 0 0 -65 0 -65 30 0 c29 0 30 1 30 51 0 27
-4 48 -8 45 -10 -6 -52 30 -52 44 0 5 -11 12 -24 16 -16 4 -23 11 -19 20 4 11
-6 14 -46 14 -50 0 -51 -1 -51 -30z"/>
<path d="M3120 2400 l0 -30 70 0 70 0 0 -65 0 -65 30 0 c30 0 30 0 29 58 0 31
-3 51 -6 45 -4 -10 -7 -10 -18 0 -7 7 -27 25 -45 40 -17 15 -28 31 -25 37 4 6
-15 10 -49 10 -56 0 -56 0 -56 -30z"/>
<path d="M3570 2400 l0 -30 70 0 70 0 0 -65 0 -65 30 0 c29 0 30 2 30 45 0 34
-6 50 -25 70 -14 14 -29 25 -34 25 -4 0 -18 11 -31 25 -18 19 -34 25 -67 25
-41 0 -43 -1 -43 -30z"/>
<path d="M4020 2400 l0 -30 70 0 70 0 0 -65 0 -65 33 0 33 0 -4 65 -4 65 42 0
c37 0 40 2 26 15 -8 8 -19 15 -25 15 -15 0 -14 17 2 23 6 3 -45 6 -115 6
l-128 1 0 -30z"/>
<path d="M5252 2152 l-2 -93 30 21 c42 30 54 21 24 -18 -14 -18 -30 -30 -35
-27 -20 13 -8 -15 13 -29 28 -20 49 -21 23 -2 -18 13 -18 15 9 50 15 20 25 44
22 52 -5 13 -9 13 -35 -1 -17 -8 -32 -15 -35 -15 -3 0 -7 35 -9 78 l-3 77 -2
-93z"/>
<path d="M558 2175 l4 -45 -55 0 c-31 0 -62 -3 -71 -6 -18 -7 -21 -46 -6 -75
10 -18 23 -19 171 -19 l160 0 -6 23 c-20 65 -28 72 -83 75 l-52 3 0 45 c0 43
-1 44 -33 44 -32 0 -32 0 -29 -45z"/>
<path d="M1010 2171 l0 -49 -44 5 c-67 8 -96 -2 -96 -33 0 -14 5 -34 10 -45
10 -18 23 -19 171 -19 l160 0 -6 23 c-20 65 -28 72 -83 75 l-52 3 0 45 c0 42
-1 44 -30 44 -29 0 -30 -1 -30 -49z"/>
<path d="M1460 2172 l0 -48 -57 3 c-76 5 -90 -4 -77 -54 l9 -38 164 -3 163 -3
-7 28 c-14 58 -31 73 -85 73 l-50 0 0 45 c0 43 -1 45 -30 45 -29 0 -30 -1 -30
-48z"/>
<path d="M1910 2173 l0 -48 -57 3 c-77 3 -90 -6 -77 -55 l9 -38 164 -3 163 -3
-7 28 c-14 58 -31 73 -85 73 l-50 0 0 45 c0 43 -1 45 -30 45 -29 0 -30 -1 -30
-47z"/>
<path d="M2360 2172 l0 -48 -57 3 c-76 5 -90 -4 -77 -54 l9 -38 163 -3 c89 -1
162 1 162 6 0 19 -24 77 -34 84 -6 4 -32 8 -58 8 l-48 0 0 45 c0 43 -1 45 -30
45 -29 0 -30 -1 -30 -48z"/>
<path d="M2810 2173 l0 -48 -58 3 c-71 4 -90 -11 -76 -61 l10 -32 162 -3 c89
-1 162 1 162 6 0 19 -24 77 -34 84 -6 4 -32 8 -58 8 l-48 0 0 45 c0 43 -1 45
-30 45 -29 0 -30 -1 -30 -47z"/>
<path d="M3260 2172 l0 -47 -45 3 c-89 8 -111 -12 -83 -73 l11 -25 160 0 159
0 -6 25 c-18 72 -22 75 -82 75 l-56 0 4 45 c3 45 3 45 -29 45 -33 0 -33 -1
-33 -48z"/>
<path d="M3710 2173 l0 -48 -58 3 c-71 4 -90 -11 -76 -61 l10 -32 163 -3 163
-3 -6 25 c-18 72 -22 76 -76 76 -49 0 -50 0 -52 33 0 17 -1 38 -1 45 1 7 -12
12 -33 12 -34 0 -34 0 -34 -47z"/>
<path d="M4160 2173 l0 -48 -61 0 c-74 0 -90 -15 -69 -64 l12 -31 159 0 c175
0 171 -2 144 64 -15 35 -17 36 -65 36 l-50 0 0 45 c0 45 0 45 -35 45 l-35 0 0
-47z"/>
<path d="M5355 1990 l-30 -8 33 -1 c17 0 32 4 32 9 0 6 -1 9 -2 9 -2 -1 -16
-5 -33 -9z"/>
<path d="M240 1943 l0 -38 2145 3 2145 2 0 35 0 35 -2145 0 -2145 0 0 -37z"/>
<path d="M227 1873 c-11 -10 -8 -81 3 -88 6 -4 10 13 10 44 0 52 -1 56 -13 44z"/>
<path d="M4112 1817 c-40 -41 -42 -46 -42 -103 0 -57 2 -62 43 -102 41 -40 46
-42 103 -42 56 0 62 2 97 38 35 36 37 41 37 102 0 62 -1 66 -42 107 -40 40
-45 43 -98 43 -53 0 -58 -3 -98 -43z m88 -77 c0 -6 -4 -10 -10 -10 -5 0 -10
-11 -10 -25 0 -14 -4 -25 -10 -25 -5 0 -10 11 -10 24 0 14 -4 28 -10 31 -6 4
-10 -6 -10 -23 0 -36 -27 -50 -49 -26 -15 15 -14 16 9 11 l25 -6 -24 18 c-13
10 -21 23 -17 29 8 13 116 15 116 2z m68 -2 c9 -9 12 -9 12 1 0 8 10 11 27 9
33 -4 44 -35 16 -45 -10 -4 -22 -11 -26 -17 -6 -8 -10 -7 -14 1 -3 10 -8 9
-20 -2 -19 -20 -26 -19 -47 4 -33 36 18 83 52 49z"/>
<path d="M4226 1722 c-2 -4 -1 -14 4 -22 7 -11 12 -12 21 -3 6 6 8 16 5 22 -8
13 -23 14 -30 3z"/>
<path d="M2544 1798 c-48 -23 -59 -104 -19 -143 36 -37 115 -33 115 6 0 16 -3
17 -24 7 -32 -14 -54 -5 -66 27 -19 50 21 101 61 77 25 -16 29 -15 29 7 0 30
-52 41 -96 19z"/>
<path d="M2685 1785 c-29 -28 -34 -97 -10 -129 22 -29 94 -33 128 -6 23 18 27
29 27 68 0 53 -5 64 -37 81 -36 19 -82 13 -108 -14z m86 -15 c14 -8 19 -21 19
-50 0 -29 -5 -42 -19 -50 -27 -14 -37 -13 -55 6 -30 29 -11 104 25 104 6 0 19
-5 30 -10z"/>
<path d="M2860 1720 l0 -90 49 0 c69 0 106 31 106 90 0 59 -37 90 -106 90
l-49 0 0 -90z m95 46 c40 -29 14 -106 -37 -106 -15 0 -18 9 -18 53 0 70 14 83
55 53z"/>
<path d="M3040 1720 l0 -91 55 3 c64 3 79 21 22 26 -33 3 -38 6 -35 25 2 16
11 23 31 25 38 5 36 32 -4 32 -44 0 -37 34 9 38 20 2 32 9 32 18 0 10 -14 14
-55 14 l-55 0 0 -90z"/>
<path d="M3187 1803 c-4 -3 -7 -44 -7 -90 0 -76 2 -83 20 -83 16 0 20 7 20 35
0 25 5 35 15 35 9 0 23 -16 32 -35 10 -21 24 -35 35 -35 22 0 23 12 2 52 -11
22 -13 33 -5 41 18 18 13 65 -8 77 -22 11 -94 14 -104 3z m81 -46 c4 -20 -25
-34 -40 -19 -15 15 -1 44 19 40 10 -2 19 -11 21 -21z"/>
<path d="M3410 1720 l0 -90 48 0 c77 0 117 44 76 85 -13 12 -14 19 -5 28 32
32 -4 67 -70 67 l-49 0 0 -90z m83 46 c7 -18 -1 -26 -25 -26 -11 0 -18 7 -18
20 0 23 35 28 43 6z m5 -68 c8 -8 9 -15 1 -25 -17 -20 -49 -16 -49 5 0 32 25
43 48 20z"/>
<path d="M3574 1795 c-12 -30 2 -124 21 -145 21 -24 81 -27 110 -6 16 11 20
30 23 90 4 72 3 76 -17 76 -19 0 -21 -6 -21 -58 0 -64 -16 -96 -46 -90 -16 3
-20 14 -24 73 -4 56 -8 70 -23 73 -9 2 -20 -4 -23 -13z"/>
<path d="M3782 1804 c-7 -3 -17 -14 -22 -25 -14 -25 2 -54 40 -74 17 -9 30
-20 30 -26 0 -16 -31 -23 -52 -10 -15 9 -20 8 -25 -5 -13 -35 71 -48 100 -16
28 30 21 60 -18 83 -45 27 -48 54 -4 45 25 -5 30 -3 27 12 -3 17 -49 27 -76
16z"/>
<path d="M240 1715 l0 -35 1015 0 1015 0 0 35 0 35 -1015 0 -1015 0 0 -35z"/>
<path d="M4380 1715 l0 -35 75 0 75 0 0 35 0 35 -75 0 -75 0 0 -35z"/>
<path d="M5406 1679 c-33 -32 -57 -62 -53 -66 4 -4 33 18 65 48 31 30 59 55
61 57 3 1 0 6 -5 11 -5 5 -33 -15 -68 -50z"/>
<path d="M6123 1553 c26 -2 67 -2 90 0 23 2 2 3 -48 3 -49 0 -68 -1 -42 -3z"/>
<path d="M240 1475 l0 -35 378 1 377 0 28 35 29 34 -406 0 -406 0 0 -35z"/>
<path d="M1720 1475 l34 -35 1388 0 1388 0 0 35 0 35 -1422 0 -1422 0 34 -35z"/>
<path d="M494 1375 c-7 -18 3 -35 21 -35 15 0 24 19 18 38 -6 17 -32 15 -39
-3z"/>
<path d="M2557 1376 c-8 -20 20 -43 35 -28 14 14 3 42 -16 42 -7 0 -16 -6 -19
-14z"/>
<path d="M4314 1375 c-4 -9 -2 -21 4 -27 15 -15 44 -1 40 19 -4 23 -36 29 -44
8z"/>
</g>
</svg>
